# xmcd
#
# Track frame offsets:
#	150
#	15060
#	30957
#	45597
#	61646
#	77466
#	98321
#	116451
#	130472
#	141403
#	162490
#
# Disc length: 2376 seconds
# Revision: 0
# Processed by: cddbd v1.5.2PL0 Copyright (c) Steve Scherf et al.
# Submitted via: dBpowerAMP V12.0
#
DISCID=7409460b
DTITLE=Charles Ponder - In The Spotlight
DYEAR=2017
DGENRE=Blues
TTITLE0=Day Tripper
TTITLE1=Best In Town
TTITLE2=We're Gonna Make It Through The Storm
TTITLE3=Lovin' It Up
TTITLE4=Will You Stand By Me?
TTITLE5=She's A Woman
TTITLE6=Black Magic Woman
TTITLE7=All Tore Up and Cryin'
TTITLE8=Bingo
TTITLE9=Let's Get Together
TTITLE10=Will Sign Record Deal For Food
EXTD=
EXTT0=
EXTT1=
EXTT2=
EXTT3=
EXTT4=
EXTT5=
EXTT6=
EXTT7=
EXTT8=
EXTT9=
EXTT10=
PLAYORDER=
